<svg style="max-width:100%;height:auto" xmlns:xlink="http://www.w3.org/1999/xlink" width="239.76pt" height="158.96pt" viewBox="0 0 239.76 158.96" xmlns="http://www.w3.org/2000/svg" version="1.1">
 
 <defs>
  <style type="text/css">*{stroke-linejoin: round; stroke-linecap: butt}</style>
 </defs>
 <g id="figure_1">
  <g id="patch_1">
   <path d="M 0 158.96 
L 239.76 158.96 
L 239.76 0 
L 0 0 
z
" style="fill: #ffffff"/>
  </g>
  <g id="axes_1">
   <g id="line2d_1">
    <path d="M 31.68 49.88 
L 31.68 31.88 
L 96.48 31.88 
L 96.48 67.88 
L 31.68 67.88 
L 31.68 49.88 
" clip-path="url(#clip0)" style="fill: none; stroke: #000000; stroke-width: 1.8; stroke-linecap: round"/>
   </g>
   <g id="line2d_2">
    <path d="M 132.48 49.88 
L 132.48 67.88 
L 159.48 49.88 
L 132.48 31.88 
L 132.48 49.88 
" clip-path="url(#clip0)" style="fill: none; stroke: #000000; stroke-width: 1.8; stroke-linecap: round"/>
   </g>
   <g id="line2d_3">
    <path d="M 96.48 49.88 
L 114.48 49.88 
L 123.48 49.88 
" clip-path="url(#clip0)" style="fill: none; stroke: #000000; stroke-width: 1.8; stroke-linecap: round"/>
   </g>
   <g id="patch_2">
    <path d="M 123.48 47.18 
L 132.48 49.88 
L 123.48 52.58 
z
" clip-path="url(#clip0)"/>
   </g>
   <g id="line2d_4">
    <path d="M 159.48 49.88 
L 181.08 49.88 
L 193.68 49.88 
" clip-path="url(#clip0)" style="fill: none; stroke: #000000; stroke-width: 1.8; stroke-linecap: round"/>
   </g>
   <g id="patch_3">
    <path d="M 193.68 47.18 
L 202.68 49.88 
L 193.68 52.58 
z
" clip-path="url(#clip0)"/>
   </g>
   <g id="line2d_5">
    <path d="M 148.68 136.28 
L 148.68 118.28 
L 235.08 118.28 
L 235.08 154.28 
L 148.68 154.28 
L 148.68 136.28 
" clip-path="url(#clip0)" style="fill: none; stroke: #000000; stroke-width: 1.8; stroke-linecap: round"/>
   </g>
   <g id="line2d_6">
    <path d="M 202.68 49.88 
L 202.68 136.28 
L 235.08 136.28 
" clip-path="url(#clip0)" style="fill: none; stroke: #000000; stroke-width: 1.8; stroke-linecap: round"/>
   </g>
   <g id="line2d_7">
    <path d="M 4.68 136.28 
L 4.68 118.28 
L 112.68 118.28 
L 112.68 154.28 
L 4.68 154.28 
L 4.68 136.28 
" clip-path="url(#clip0)" style="fill: none; stroke: #000000; stroke-width: 1.8; stroke-linecap: round"/>
   </g>
   <g id="line2d_8">
    <path d="M 148.68 136.28 
L 130.68 136.28 
L 121.68 136.28 
" clip-path="url(#clip0)" style="fill: none; stroke: #000000; stroke-width: 1.8; stroke-linecap: round"/>
   </g>
   <g id="patch_4">
    <path d="M 121.68 138.98 
L 112.68 136.28 
L 121.68 133.58 
z
" clip-path="url(#clip0)"/>
   </g>
   <g id="line2d_9">
    <path d="M 4.68 136.28 
L 64.08 136.28 
L 64.08 67.88 
" clip-path="url(#clip0)" style="fill: none; stroke: #000000; stroke-width: 1.8; stroke-linecap: round"/>
   </g>
   <g id="line2d_10">
    <path d="M 64.08 76.88 
L 64.08 76.88 
" clip-path="url(#clip0)" style="fill: none; stroke: #000000; stroke-width: 1.8; stroke-linecap: round"/>
   </g>
   <g id="patch_5">
    <path d="M 61.38 76.88 
L 64.08 67.88 
L 66.78 76.88 
z
" clip-path="url(#clip0)"/>
   </g>
   <g id="text_1">
    <!-- DPD -->
    <g transform="translate(52.293672 48.389844) scale(0.11 -0.11)">
     <defs>
      <path id="DejaVuSans-27" d="M 1259 4147 
L 1259 519 
L 2022 519 
Q 2988 519 3436 956 
Q 3884 1394 3884 2338 
Q 3884 3275 3436 3711 
Q 2988 4147 2022 4147 
L 1259 4147 
z
M 628 4666 
L 1925 4666 
Q 3281 4666 3915 4102 
Q 4550 3538 4550 2338 
Q 4550 1131 3912 565 
Q 3275 0 1925 0 
L 628 0 
L 628 4666 
z
" transform="scale(0.015625)"/>
      <path id="DejaVuSans-33" d="M 1259 4147 
L 1259 2394 
L 2053 2394 
Q 2494 2394 2734 2622 
Q 2975 2850 2975 3272 
Q 2975 3691 2734 3919 
Q 2494 4147 2053 4147 
L 1259 4147 
z
M 628 4666 
L 2053 4666 
Q 2838 4666 3239 4311 
Q 3641 3956 3641 3272 
Q 3641 2581 3239 2228 
Q 2838 1875 2053 1875 
L 1259 1875 
L 1259 0 
L 628 0 
L 628 4666 
z
" transform="scale(0.015625)"/>
     </defs>
     <use xlink:href="#DejaVuSans-27"/>
     <use xlink:href="#DejaVuSans-33" transform="translate(77 0)"/>
     <use xlink:href="#DejaVuSans-27" transform="translate(137.296875 0)"/>
    </g>
    <!-- (GMP) -->
    <g transform="translate(47.464844 58.827812) scale(0.11 -0.11)">
     <defs>
      <path id="DejaVuSans-b" d="M 1984 4856 
Q 1566 4138 1362 3434 
Q 1159 2731 1159 2009 
Q 1159 1288 1364 580 
Q 1569 -128 1984 -844 
L 1484 -844 
Q 1016 -109 783 600 
Q 550 1309 550 2009 
Q 550 2706 781 3412 
Q 1013 4119 1484 4856 
L 1984 4856 
z
" transform="scale(0.015625)"/>
      <path id="DejaVuSans-2a" d="M 3809 666 
L 3809 1919 
L 2778 1919 
L 2778 2438 
L 4434 2438 
L 4434 434 
Q 4069 175 3628 42 
Q 3188 -91 2688 -91 
Q 1594 -91 976 548 
Q 359 1188 359 2328 
Q 359 3472 976 4111 
Q 1594 4750 2688 4750 
Q 3144 4750 3555 4637 
Q 3966 4525 4313 4306 
L 4313 3634 
Q 3963 3931 3569 4081 
Q 3175 4231 2741 4231 
Q 1884 4231 1454 3753 
Q 1025 3275 1025 2328 
Q 1025 1384 1454 906 
Q 1884 428 2741 428 
Q 3075 428 3337 486 
Q 3600 544 3809 666 
z
" transform="scale(0.015625)"/>
      <path id="DejaVuSans-30" d="M 628 4666 
L 1569 4666 
L 2759 1491 
L 3956 4666 
L 4897 4666 
L 4897 0 
L 4281 0 
L 4281 4097 
L 3078 897 
L 2444 897 
L 1241 4097 
L 1241 0 
L 628 0 
L 628 4666 
z
" transform="scale(0.015625)"/>
      <path id="DejaVuSans-c" d="M 513 4856 
L 1013 4856 
Q 1481 4119 1714 3412 
Q 1947 2706 1947 2009 
Q 1947 1309 1714 600 
Q 1481 -109 1013 -844 
L 513 -844 
Q 928 -128 1133 580 
Q 1338 1288 1338 2009 
Q 1338 2731 1133 3434 
Q 928 4138 513 4856 
z
" transform="scale(0.015625)"/>
     </defs>
     <use xlink:href="#DejaVuSans-b"/>
     <use xlink:href="#DejaVuSans-2a" transform="translate(39.015625 0)"/>
     <use xlink:href="#DejaVuSans-30" transform="translate(116.5 0)"/>
     <use xlink:href="#DejaVuSans-33" transform="translate(202.78125 0)"/>
     <use xlink:href="#DejaVuSans-c" transform="translate(263.078125 0)"/>
    </g>
   </g>
   <g id="text_2">
    <!-- PA -->
    <g transform="translate(139.252812 14.189844) scale(0.11 -0.11)">
     <defs>
      <path id="DejaVuSans-24" d="M 2188 4044 
L 1331 1722 
L 3047 1722 
L 2188 4044 
z
M 1831 4666 
L 2547 4666 
L 4325 0 
L 3669 0 
L 3244 1197 
L 1141 1197 
L 716 0 
L 50 0 
L 1831 4666 
z
" transform="scale(0.015625)"/>
     </defs>
     <use xlink:href="#DejaVuSans-33"/>
     <use xlink:href="#DejaVuSans-24" transform="translate(53.90625 0)"/>
    </g>
   </g>
   <g id="text_3">
    <!-- u -->
    <g transform="translate(111.31125 38.608906) scale(0.1 -0.1)">
     <defs>
      <path id="DejaVuSans-58" d="M 544 1381 
L 544 3500 
L 1119 3500 
L 1119 1403 
Q 1119 906 1312 657 
Q 1506 409 1894 409 
Q 2359 409 2629 706 
Q 2900 1003 2900 1516 
L 2900 3500 
L 3475 3500 
L 3475 0 
L 2900 0 
L 2900 538 
Q 2691 219 2414 64 
Q 2138 -91 1772 -91 
Q 1169 -91 856 284 
Q 544 659 544 1381 
z
M 1991 3584 
L 1991 3584 
z
" transform="scale(0.015625)"/>
     </defs>
     <use xlink:href="#DejaVuSans-58"/>
    </g>
   </g>
   <g id="text_4">
    <!-- y -->
    <g transform="translate(178.120625 37.574531) scale(0.1 -0.1)">
     <defs>
      <path id="DejaVuSans-5c" d="M 2059 -325 
Q 1816 -950 1584 -1140 
Q 1353 -1331 966 -1331 
L 506 -1331 
L 506 -850 
L 844 -850 
Q 1081 -850 1212 -737 
Q 1344 -625 1503 -206 
L 1606 56 
L 191 3500 
L 800 3500 
L 1894 763 
L 2988 3500 
L 3597 3500 
L 2059 -325 
z
" transform="scale(0.015625)"/>
     </defs>
     <use xlink:href="#DejaVuSans-5c"/>
    </g>
   </g>
   <g id="text_5">
    <!-- capture / G₀ -->
    <g transform="translate(164.988281 134.183984) scale(0.09 -0.09)">
     <defs>
      <path id="DejaVuSans-46" d="M 3122 3366 
L 3122 2828 
Q 2878 2963 2633 3030 
Q 2388 3097 2138 3097 
Q 1578 3097 1268 2742 
Q 959 2388 959 1747 
Q 959 1106 1268 751 
Q 1578 397 2138 397 
Q 2388 397 2633 464 
Q 2878 531 3122 666 
L 3122 134 
Q 2881 22 2623 -34 
Q 2366 -91 2075 -91 
Q 1284 -91 818 406 
Q 353 903 353 1747 
Q 353 2603 823 3093 
Q 1294 3584 2113 3584 
Q 2378 3584 2631 3529 
Q 2884 3475 3122 3366 
z
" transform="scale(0.015625)"/>
      <path id="DejaVuSans-44" d="M 2194 1759 
Q 1497 1759 1228 1600 
Q 959 1441 959 1056 
Q 959 750 1161 570 
Q 1363 391 1709 391 
Q 2188 391 2477 730 
Q 2766 1069 2766 1631 
L 2766 1759 
L 2194 1759 
z
M 3341 1997 
L 3341 0 
L 2766 0 
L 2766 531 
Q 2569 213 2275 61 
Q 1981 -91 1556 -91 
Q 1019 -91 701 211 
Q 384 513 384 1019 
Q 384 1609 779 1909 
Q 1175 2209 1959 2209 
L 2766 2209 
L 2766 2266 
Q 2766 2663 2505 2880 
Q 2244 3097 1772 3097 
Q 1472 3097 1187 3025 
Q 903 2953 641 2809 
L 641 3341 
Q 956 3463 1253 3523 
Q 1550 3584 1831 3584 
Q 2591 3584 2966 3190 
Q 3341 2797 3341 1997 
z
" transform="scale(0.015625)"/>
      <path id="DejaVuSans-53" d="M 1159 525 
L 1159 -1331 
L 581 -1331 
L 581 3500 
L 1159 3500 
L 1159 2969 
Q 1341 3281 1617 3432 
Q 1894 3584 2278 3584 
Q 2916 3584 3314 3078 
Q 3713 2572 3713 1747 
Q 3713 922 3314 415 
Q 2916 -91 2278 -91 
Q 1894 -91 1617 61 
Q 1341 213 1159 525 
z
M 3116 1747 
Q 3116 2381 2855 2742 
Q 2594 3103 2138 3103 
Q 1681 3103 1420 2742 
Q 1159 2381 1159 1747 
Q 1159 1113 1420 752 
Q 1681 391 2138 391 
Q 2594 391 2855 752 
Q 3116 1113 3116 1747 
z
" transform="scale(0.015625)"/>
      <path id="DejaVuSans-57" d="M 1172 4494 
L 1172 3500 
L 2356 3500 
L 2356 3053 
L 1172 3053 
L 1172 1153 
Q 1172 725 1289 603 
Q 1406 481 1766 481 
L 2356 481 
L 2356 0 
L 1766 0 
Q 1100 0 847 248 
Q 594 497 594 1153 
L 594 3053 
L 172 3053 
L 172 3500 
L 594 3500 
L 594 4494 
L 1172 4494 
z
" transform="scale(0.015625)"/>
      <path id="DejaVuSans-55" d="M 2631 2963 
Q 2534 3019 2420 3045 
Q 2306 3072 2169 3072 
Q 1681 3072 1420 2755 
Q 1159 2438 1159 1844 
L 1159 0 
L 581 0 
L 581 3500 
L 1159 3500 
L 1159 2956 
Q 1341 3275 1631 3429 
Q 1922 3584 2338 3584 
Q 2397 3584 2469 3576 
Q 2541 3569 2628 3553 
L 2631 2963 
z
" transform="scale(0.015625)"/>
      <path id="DejaVuSans-48" d="M 3597 1894 
L 3597 1613 
L 953 1613 
Q 991 1019 1311 708 
Q 1631 397 2203 397 
Q 2534 397 2845 478 
Q 3156 559 3463 722 
L 3463 178 
Q 3153 47 2828 -22 
Q 2503 -91 2169 -91 
Q 1331 -91 842 396 
Q 353 884 353 1716 
Q 353 2575 817 3079 
Q 1281 3584 2069 3584 
Q 2775 3584 3186 3129 
Q 3597 2675 3597 1894 
z
M 3022 2063 
Q 3016 2534 2758 2815 
Q 2500 3097 2075 3097 
Q 1594 3097 1305 2825 
Q 1016 2553 972 2059 
L 3022 2063 
z
" transform="scale(0.015625)"/>
      <path id="DejaVuSans-3" d="M 0 0" transform="scale(0.015625)"/>
      <path id="DejaVuSans-12" d="M 1625 4666 
L 2156 4666 
L 531 -594 
L 0 -594 
L 1625 4666 
z
" transform="scale(0.015625)"/>
      <path id="DejaVuSans-b5b" d="M 1781 2115 
Q 1625 2384 1309 2384 
Q 994 2384 838 2115 
Q 678 1846 678 1309 
Q 678 768 838 500 
Q 994 231 1309 231 
Q 1625 231 1781 500 
Q 1941 768 1941 1309 
Q 1941 1846 1781 2115 
z
M 1309 2662 
Q 1813 2662 2078 2315 
Q 2344 1968 2344 1309 
Q 2344 646 2078 299 
Q 1813 -47 1309 -47 
Q 803 -47 537 299 
Q 272 646 272 1309 
Q 272 1968 537 2315 
Q 803 2662 1309 2662 
z
" transform="scale(0.015625)"/>
     </defs>
     <use xlink:href="#DejaVuSans-46"/>
     <use xlink:href="#DejaVuSans-44" transform="translate(54.984375 0)"/>
     <use xlink:href="#DejaVuSans-53" transform="translate(116.265625 0)"/>
     <use xlink:href="#DejaVuSans-57" transform="translate(179.75 0)"/>
     <use xlink:href="#DejaVuSans-58" transform="translate(218.953125 0)"/>
     <use xlink:href="#DejaVuSans-55" transform="translate(282.328125 0)"/>
     <use xlink:href="#DejaVuSans-48" transform="translate(321.234375 0)"/>
     <use xlink:href="#DejaVuSans-3" transform="translate(382.765625 0)"/>
     <use xlink:href="#DejaVuSans-12" transform="translate(414.546875 0)"/>
     <use xlink:href="#DejaVuSans-3" transform="translate(448.234375 0)"/>
     <use xlink:href="#DejaVuSans-2a" transform="translate(480.015625 0)"/>
     <use xlink:href="#DejaVuSans-b5b" transform="translate(557.5 0)"/>
    </g>
    <!-- (aligned) -->
    <g transform="translate(171.77625 143.263437) scale(0.09 -0.09)">
     <defs>
      <path id="DejaVuSans-4f" d="M 603 4863 
L 1178 4863 
L 1178 0 
L 603 0 
L 603 4863 
z
" transform="scale(0.015625)"/>
      <path id="DejaVuSans-4c" d="M 603 3500 
L 1178 3500 
L 1178 0 
L 603 0 
L 603 3500 
z
M 603 4863 
L 1178 4863 
L 1178 4134 
L 603 4134 
L 603 4863 
z
" transform="scale(0.015625)"/>
      <path id="DejaVuSans-4a" d="M 2906 1791 
Q 2906 2416 2648 2759 
Q 2391 3103 1925 3103 
Q 1463 3103 1205 2759 
Q 947 2416 947 1791 
Q 947 1169 1205 825 
Q 1463 481 1925 481 
Q 2391 481 2648 825 
Q 2906 1169 2906 1791 
z
M 3481 434 
Q 3481 -459 3084 -895 
Q 2688 -1331 1869 -1331 
Q 1566 -1331 1297 -1286 
Q 1028 -1241 775 -1147 
L 775 -588 
Q 1028 -725 1275 -790 
Q 1522 -856 1778 -856 
Q 2344 -856 2625 -561 
Q 2906 -266 2906 331 
L 2906 616 
Q 2728 306 2450 153 
Q 2172 0 1784 0 
Q 1141 0 747 490 
Q 353 981 353 1791 
Q 353 2603 747 3093 
Q 1141 3584 1784 3584 
Q 2172 3584 2450 3431 
Q 2728 3278 2906 2969 
L 2906 3500 
L 3481 3500 
L 3481 434 
z
" transform="scale(0.015625)"/>
      <path id="DejaVuSans-51" d="M 3513 2113 
L 3513 0 
L 2938 0 
L 2938 2094 
Q 2938 2591 2744 2837 
Q 2550 3084 2163 3084 
Q 1697 3084 1428 2787 
Q 1159 2491 1159 1978 
L 1159 0 
L 581 0 
L 581 3500 
L 1159 3500 
L 1159 2956 
Q 1366 3272 1645 3428 
Q 1925 3584 2291 3584 
Q 2894 3584 3203 3211 
Q 3513 2838 3513 2113 
z
" transform="scale(0.015625)"/>
      <path id="DejaVuSans-47" d="M 2906 2969 
L 2906 4863 
L 3481 4863 
L 3481 0 
L 2906 0 
L 2906 525 
Q 2725 213 2448 61 
Q 2172 -91 1784 -91 
Q 1150 -91 751 415 
Q 353 922 353 1747 
Q 353 2572 751 3078 
Q 1150 3584 1784 3584 
Q 2172 3584 2448 3432 
Q 2725 3281 2906 2969 
z
M 947 1747 
Q 947 1113 1208 752 
Q 1469 391 1925 391 
Q 2381 391 2643 752 
Q 2906 1113 2906 1747 
Q 2906 2381 2643 2742 
Q 2381 3103 1925 3103 
Q 1469 3103 1208 2742 
Q 947 2381 947 1747 
z
" transform="scale(0.015625)"/>
     </defs>
     <use xlink:href="#DejaVuSans-b"/>
     <use xlink:href="#DejaVuSans-44" transform="translate(39.015625 0)"/>
     <use xlink:href="#DejaVuSans-4f" transform="translate(100.296875 0)"/>
     <use xlink:href="#DejaVuSans-4c" transform="translate(128.078125 0)"/>
     <use xlink:href="#DejaVuSans-4a" transform="translate(155.859375 0)"/>
     <use xlink:href="#DejaVuSans-51" transform="translate(219.34375 0)"/>
     <use xlink:href="#DejaVuSans-48" transform="translate(282.71875 0)"/>
     <use xlink:href="#DejaVuSans-47" transform="translate(344.25 0)"/>
     <use xlink:href="#DejaVuSans-c" transform="translate(407.734375 0)"/>
    </g>
   </g>
   <g id="text_6">
    <!-- LS fit postinverse -->
    <g transform="translate(19.641094 134.263437) scale(0.09 -0.09)">
     <defs>
      <path id="DejaVuSans-2f" d="M 628 4666 
L 1259 4666 
L 1259 531 
L 3531 531 
L 3531 0 
L 628 0 
L 628 4666 
z
" transform="scale(0.015625)"/>
      <path id="DejaVuSans-36" d="M 3425 4513 
L 3425 3897 
Q 3066 4069 2747 4153 
Q 2428 4238 2131 4238 
Q 1616 4238 1336 4038 
Q 1056 3838 1056 3469 
Q 1056 3159 1242 3001 
Q 1428 2844 1947 2747 
L 2328 2669 
Q 3034 2534 3370 2195 
Q 3706 1856 3706 1288 
Q 3706 609 3251 259 
Q 2797 -91 1919 -91 
Q 1588 -91 1214 -16 
Q 841 59 441 206 
L 441 856 
Q 825 641 1194 531 
Q 1563 422 1919 422 
Q 2459 422 2753 634 
Q 3047 847 3047 1241 
Q 3047 1584 2836 1778 
Q 2625 1972 2144 2069 
L 1759 2144 
Q 1053 2284 737 2584 
Q 422 2884 422 3419 
Q 422 4038 858 4394 
Q 1294 4750 2059 4750 
Q 2388 4750 2728 4690 
Q 3069 4631 3425 4513 
z
" transform="scale(0.015625)"/>
      <path id="DejaVuSans-13af" d="M 3431 3500 
L 3431 0 
L 2853 0 
L 2853 3053 
L 1275 3053 
L 1275 0 
L 697 0 
L 697 3053 
L 147 3053 
L 147 3500 
L 697 3500 
L 697 3744 
Q 697 4316 967 4589 
Q 1238 4863 1797 4863 
L 2375 4863 
L 2375 4384 
L 1825 4384 
Q 1516 4384 1395 4259 
Q 1275 4134 1275 3809 
L 1275 3500 
L 3431 3500 
z
M 2853 4856 
L 3431 4856 
L 3431 4128 
L 2853 4128 
L 2853 4856 
z
" transform="scale(0.015625)"/>
      <path id="DejaVuSans-52" d="M 1959 3097 
Q 1497 3097 1228 2736 
Q 959 2375 959 1747 
Q 959 1119 1226 758 
Q 1494 397 1959 397 
Q 2419 397 2687 759 
Q 2956 1122 2956 1747 
Q 2956 2369 2687 2733 
Q 2419 3097 1959 3097 
z
M 1959 3584 
Q 2709 3584 3137 3096 
Q 3566 2609 3566 1747 
Q 3566 888 3137 398 
Q 2709 -91 1959 -91 
Q 1206 -91 779 398 
Q 353 888 353 1747 
Q 353 2609 779 3096 
Q 1206 3584 1959 3584 
z
" transform="scale(0.015625)"/>
      <path id="DejaVuSans-56" d="M 2834 3397 
L 2834 2853 
Q 2591 2978 2328 3040 
Q 2066 3103 1784 3103 
Q 1356 3103 1142 2972 
Q 928 2841 928 2578 
Q 928 2378 1081 2264 
Q 1234 2150 1697 2047 
L 1894 2003 
Q 2506 1872 2764 1633 
Q 3022 1394 3022 966 
Q 3022 478 2636 193 
Q 2250 -91 1575 -91 
Q 1294 -91 989 -36 
Q 684 19 347 128 
L 347 722 
Q 666 556 975 473 
Q 1284 391 1588 391 
Q 1994 391 2212 530 
Q 2431 669 2431 922 
Q 2431 1156 2273 1281 
Q 2116 1406 1581 1522 
L 1381 1569 
Q 847 1681 609 1914 
Q 372 2147 372 2553 
Q 372 3047 722 3315 
Q 1072 3584 1716 3584 
Q 2034 3584 2315 3537 
Q 2597 3491 2834 3397 
z
" transform="scale(0.015625)"/>
      <path id="DejaVuSans-59" d="M 191 3500 
L 800 3500 
L 1894 563 
L 2988 3500 
L 3597 3500 
L 2284 0 
L 1503 0 
L 191 3500 
z
" transform="scale(0.015625)"/>
     </defs>
     <use xlink:href="#DejaVuSans-2f"/>
     <use xlink:href="#DejaVuSans-36" transform="translate(55.71875 0)"/>
     <use xlink:href="#DejaVuSans-3" transform="translate(119.203125 0)"/>
     <use xlink:href="#DejaVuSans-13af" transform="translate(150.984375 0)"/>
     <use xlink:href="#DejaVuSans-57" transform="translate(213.96875 0)"/>
     <use xlink:href="#DejaVuSans-3" transform="translate(253.171875 0)"/>
     <use xlink:href="#DejaVuSans-53" transform="translate(284.953125 0)"/>
     <use xlink:href="#DejaVuSans-52" transform="translate(348.4375 0)"/>
     <use xlink:href="#DejaVuSans-56" transform="translate(409.625 0)"/>
     <use xlink:href="#DejaVuSans-57" transform="translate(461.71875 0)"/>
     <use xlink:href="#DejaVuSans-4c" transform="translate(500.921875 0)"/>
     <use xlink:href="#DejaVuSans-51" transform="translate(528.703125 0)"/>
     <use xlink:href="#DejaVuSans-59" transform="translate(592.078125 0)"/>
     <use xlink:href="#DejaVuSans-48" transform="translate(651.265625 0)"/>
     <use xlink:href="#DejaVuSans-55" transform="translate(712.796875 0)"/>
     <use xlink:href="#DejaVuSans-56" transform="translate(753.90625 0)"/>
     <use xlink:href="#DejaVuSans-48" transform="translate(806 0)"/>
    </g>
    <!-- y/G₀ → u -->
    <g transform="translate(39.726562 143.183984) scale(0.09 -0.09)">
     <defs>
      <path id="DejaVuSans-c1c" d="M 5050 2147 
L 5050 1866 
L 3822 638 
L 3447 1013 
L 4175 1741 
L 366 1741 
L 366 2272 
L 4175 2272 
L 3447 3000 
L 3822 3375 
L 5050 2147 
z
" transform="scale(0.015625)"/>
     </defs>
     <use xlink:href="#DejaVuSans-5c"/>
     <use xlink:href="#DejaVuSans-12" transform="translate(59.1875 0)"/>
     <use xlink:href="#DejaVuSans-2a" transform="translate(92.875 0)"/>
     <use xlink:href="#DejaVuSans-b5b" transform="translate(170.359375 0)"/>
     <use xlink:href="#DejaVuSans-3" transform="translate(210.453125 0)"/>
     <use xlink:href="#DejaVuSans-c1c" transform="translate(242.234375 0)"/>
     <use xlink:href="#DejaVuSans-3" transform="translate(326.03125 0)"/>
     <use xlink:href="#DejaVuSans-58" transform="translate(357.8125 0)"/>
    </g>
   </g>
   <g id="text_7">
    <!-- copy coefficients -->
    <g transform="translate(69.300703 99.163437) scale(0.09 -0.09)">
     <defs>
      <path id="DejaVuSans-13b1" d="M 2375 4863 
L 2375 4384 
L 1825 4384 
Q 1516 4384 1394 4259 
Q 1275 4134 1275 3809 
L 1275 3500 
L 2853 3500 
L 2853 3744 
Q 2853 4328 3125 4594 
Q 3213 4681 3334 4741 
Q 3578 4863 3988 4863 
L 4531 4863 
L 4531 4384 
L 3981 4384 
Q 3672 4384 3551 4259 
Q 3431 4134 3431 3809 
L 3431 3500 
L 5588 3500 
L 5588 0 
L 5009 0 
L 5009 3053 
L 3431 3053 
L 3431 0 
L 2853 0 
L 2853 3053 
L 1275 3053 
L 1275 0 
L 697 0 
L 697 3053 
L 147 3053 
L 147 3500 
L 697 3500 
L 697 3744 
Q 697 4328 969 4595 
Q 1241 4863 1831 4863 
L 2375 4863 
z
M 5009 4856 
L 5588 4856 
L 5588 4128 
L 5009 4128 
L 5009 4856 
z
" transform="scale(0.015625)"/>
     </defs>
     <use xlink:href="#DejaVuSans-46"/>
     <use xlink:href="#DejaVuSans-52" transform="translate(54.984375 0)"/>
     <use xlink:href="#DejaVuSans-53" transform="translate(116.171875 0)"/>
     <use xlink:href="#DejaVuSans-5c" transform="translate(179.65625 0)"/>
     <use xlink:href="#DejaVuSans-3" transform="translate(238.84375 0)"/>
     <use xlink:href="#DejaVuSans-46" transform="translate(270.625 0)"/>
     <use xlink:href="#DejaVuSans-52" transform="translate(325.609375 0)"/>
     <use xlink:href="#DejaVuSans-48" transform="translate(386.796875 0)"/>
     <use xlink:href="#DejaVuSans-13b1" transform="translate(448.328125 0)"/>
     <use xlink:href="#DejaVuSans-46" transform="translate(545.015625 0)"/>
     <use xlink:href="#DejaVuSans-4c" transform="translate(600 0)"/>
     <use xlink:href="#DejaVuSans-48" transform="translate(627.78125 0)"/>
     <use xlink:href="#DejaVuSans-51" transform="translate(689.3125 0)"/>
     <use xlink:href="#DejaVuSans-57" transform="translate(752.6875 0)"/>
     <use xlink:href="#DejaVuSans-56" transform="translate(791.890625 0)"/>
    </g>
   </g>
   <g id="patch_6">
    <path d="M 202.68 52.04 
C 203.252839 52.04 203.802293 51.812409 204.207351 51.407351 
C 204.612409 51.002293 204.84 50.452839 204.84 49.88 
C 204.84 49.307161 204.612409 48.757707 204.207351 48.352649 
C 203.802293 47.947591 203.252839 47.72 202.68 47.72 
C 202.107161 47.72 201.557707 47.947591 201.152649 48.352649 
C 200.747591 48.757707 200.52 49.307161 200.52 49.88 
C 200.52 50.452839 200.747591 51.002293 201.152649 51.407351 
C 201.557707 51.812409 202.107161 52.04 202.68 52.04 
z
" clip-path="url(#clip0)" style="stroke: #000000; stroke-width: 1.8; stroke-linejoin: miter"/>
   </g>
  </g>
 </g>
 <defs>
  <clipPath id="clip0">
   <rect x="0" y="0" width="239.76" height="158.96"/>
  </clipPath>
 </defs>
</svg>
